<svg width="580" height="400" xmlns="http://www.w3.org/2000/svg">
 <!-- Created with Method Draw - http://github.com/duopixel/Method-Draw/ -->
 <g>
  <title>background</title>
  <rect fill="#fff" id="canvas_background" height="402" width="582" y="-1" x="-1"/>
  <g display="none" overflow="visible" y="0" x="0" height="100%" width="100%" id="canvasGrid">
   <rect fill="url(#gridpattern)" stroke-width="0" y="0" x="0" height="100%" width="100%"/>
  </g>
 </g>
 <g>
  <title>Layer 1</title>
  <ellipse stroke="#ffffff" ry="104.000005" rx="212.500003" id="svg_1" cy="225.999995" cx="307.999997" stroke-width="1.5" fill="#B8874D"/>
  <path id="svg_2" d="m443.2631,248.098288c-0.605447,0.057697 -1.22445,0.097584 -1.861086,0.097584l0,0c-0.569459,0 -1.12263,-0.031571 -1.662243,-0.078378l0,0l-4.672357,6.081113l-1.149071,-0.329865c-1.348642,-0.383494 -2.658612,-0.864616 -3.918322,-1.441927l0,0l-1.09206,-0.500341l0.280986,-7.638485c-0.992992,-0.703818 -1.919435,-1.487318 -2.777399,-2.34638l0,0l-7.387284,1.606894l-0.674658,-1.003523c-0.791402,-1.177969 -1.466056,-2.412372 -2.063992,-3.660412l0,0l-0.519241,-1.090087l5.015821,-5.621973c-0.313593,-1.190404 -0.521269,-2.41929 -0.628509,-3.671454l0,0l-6.646805,-3.558735l0.120806,-1.205553c0.142556,-1.441951 0.418096,-2.821983 0.747283,-4.148436l0,0l0.293908,-1.176686l7.413757,-1.03916c0.528715,-1.129901 1.151142,-2.200681 1.85225,-3.206895l0,0l-2.828936,-7.052904l0.853852,-0.846741c1.003811,-0.989699 2.078266,-1.887271 3.199499,-2.707916l0,0l0.971273,-0.70923l6.399744,4.07006c1.078528,-0.503064 2.206559,-0.916818 3.375325,-1.234372l0,0l2.319908,-7.289337l1.195923,-0.09207c0.644127,-0.048095 1.336437,-0.104476 2.08913,-0.104476l0,0c0.750671,0 1.440917,0.056381 2.085071,0.104476l0,0l1.19589,0.09207l2.345009,7.364994c1.123979,0.317472 2.213354,0.722995 3.257247,1.215125l0,0l6.489342,-4.12791l0.974652,0.709306c1.121264,0.81927 2.197697,1.719581 3.199544,2.705171l0,0l0.857208,0.846741l-2.915817,7.261878c0.635304,0.934682 1.208129,1.924402 1.697511,2.96495l0,0l7.645219,1.072145l0.297272,1.17661c0.333939,1.325135 0.60816,2.705164 0.747261,4.149867l0,0l0.120843,1.205477l-6.878952,3.682428c-0.103147,1.142333 -0.286408,2.266741 -0.559947,3.362236l0,0l5.182783,5.797997l-0.521247,1.094103c-0.595922,1.252264 -1.267207,2.490741 -2.061997,3.664617l0,0l-0.674652,1.000654l-7.570536,-1.642539c-0.802266,0.812333 -1.671023,1.560121 -2.599556,2.235041l0,0l0.288451,7.788312l-1.094782,0.501731c-1.261093,0.574569 -2.569003,1.057048 -3.9176,1.440557l0,0l-1.153194,0.329891l-4.682533,-6.096243l0,0l0.000002,0.000002zm6.008107,1.950559c0.403868,-0.136125 0.800915,-0.283238 1.193867,-0.439942l0,0l-0.270124,-7.355294l0.85182,-0.553994c1.275996,-0.838433 2.437973,-1.844669 3.469658,-2.986886l0,0l0.686869,-0.761482l7.163335,1.553203c0.215161,-0.364281 0.423509,-0.736774 0.624401,-1.117488l0,0l-4.899732,-5.485922l0.304069,-0.980105c0.432328,-1.411677 0.678042,-2.925113 0.750653,-4.504394l0,0l0.044798,-1.028251l6.508324,-3.483113c-0.06786,-0.422017 -0.145881,-0.841246 -0.23482,-1.261914l0,0l-7.241369,-1.01435l-0.389554,-0.948498c-0.582372,-1.41861 -1.352741,-2.746409 -2.272416,-3.971136l0,0l-0.60815,-0.816505l2.754286,-6.860455c-0.319011,-0.283227 -0.646161,-0.558092 -0.982124,-0.824754l0,0l-6.147916,3.907915l-0.905443,-0.483917c-1.341142,-0.71477 -2.791612,-1.257731 -4.321478,-1.609589l0,0l-0.989574,-0.229531l-2.220112,-6.971842c-0.215861,-0.010959 -0.425578,-0.016511 -0.629873,-0.016511l0,0c-0.208389,0 -0.4181,0.005552 -0.63531,0.016511l0,0l-2.204481,6.926501l-1.003856,0.217183c-1.556346,0.338087 -3.040705,0.889325 -4.423274,1.613715l0,0l-0.903413,0.475577l-6.048159,-3.846015c-0.333928,0.266662 -0.661773,0.541527 -0.978034,0.824754l0,0l2.68095,6.680405l-0.629828,0.817815c-0.98213,1.276974 -1.798657,2.676326 -2.410875,4.178724l0,0l-0.387541,0.952581l-7.008577,0.981417c-0.088904,0.420669 -0.167619,0.839897 -0.233458,1.261914l0,0l6.283007,3.363558l0.038671,1.036373c0.065821,1.672929 0.342081,3.278424 0.817175,4.779455l0,0l0.310892,0.986895l-4.745035,5.315505c0.199567,0.382099 0.407245,0.754588 0.624464,1.118847l0,0l6.967809,-1.518894l0.693681,0.761506c1.068992,1.184946 2.290024,2.214464 3.635282,3.069489l0,0l0.868108,0.548379l-0.265396,7.242615c0.393666,0.156704 0.792074,0.303817 1.195914,0.439942l0,0l4.410404,-5.742973l1.00722,0.125026c0.760181,0.097613 1.49999,0.160846 2.236428,0.160846l0,0c0.792068,0 1.590916,-0.070075 2.407446,-0.186926l0,0l1.016075,-0.144287l4.444313,5.788314l0,0l0.000002,0.000002zm2.010395,-14.914113l0.97192,1.511963l-6.161498,4.059175l-2.186846,-3.407635l0,0c-0.795499,0.196546 -1.63169,0.312099 -2.501807,0.312099l0,0c-6.021026,0 -10.899729,-4.941611 -10.899729,-11.032339l0,0c0,-6.096188 4.878703,-11.036435 10.899729,-11.036435l0,0c6.014231,0 10.894251,4.940247 10.894251,11.036435l0,0c0,2.503052 -0.83073,4.821959 -2.223472,6.673548l0,0l1.207453,1.883192m-4.145027,0.581386l0.19208,-0.123662l-1.756546,-2.736748l1.018082,-1.030965c1.331022,-1.351193 2.14752,-3.194483 2.14752,-5.24675l0,0c-0.007474,-4.103058 -3.288444,-7.425465 -7.335693,-7.433668l0,0c-4.05678,0.008205 -7.334355,3.326462 -7.341145,7.433668l0,0c0.006791,4.098973 3.287757,7.421299 7.341145,7.429581l0,0c0.905394,0 1.776912,-0.188338 2.620562,-0.515477l0,0l1.345237,-0.52234l1.768759,2.746363l0,0z" stroke-opacity="null" stroke-width="1.5" stroke="#000" fill="#000000"/>
  <text font-style="italic" font-weight="bold" stroke="#ffffff" transform="matrix(4.29232321306182,0,0,3.589743721179474,-412.9538512088477,-543.9102833851791) " xml:space="preserve" text-anchor="start" font-family="'Simonetta', serif" font-size="24" id="svg_3" y="222" x="125.5" stroke-width="0" fill="#000000">NDGI</text>
 </g>
</svg>